<svg version="1" xmlns="http://www.w3.org/2000/svg" width="50" height="60" viewBox="0 0 50 60"><path d="M12.398 8.655l27.576 27.577-2.375 2.376-27.577-27.577z"/><path d="M39.972 11.025L12.395 38.602l-2.376-2.376L37.596 8.65zM13.18 46.71h-1.01v-.21c0-.11-.01-.18-.02-.21s-.05-.07-.13-.12c-.07-.05-.13-.08-.17-.09s-.13-.02-.28-.02H8.61c-.14 0-.24 0-.28.02s-.1.04-.17.09c-.07.05-.11.09-.13.12-.01.03-.02.1-.02.21v5.16c0 .11.01.18.02.21s.05.07.13.12c.07.05.13.08.17.09s.13.02.28.02h2.98c.14 0 .24-.01.28-.02s.1-.04.17-.09c.07-.05.11-.09.13-.12.01-.03.02-.1.02-.21v-.21h1.01v.43c0 .22-.1.4-.29.54l-.29.22c-.19.14-.38.22-.58.22H8.16c-.19 0-.38-.07-.58-.22l-.28-.21c-.19-.14-.29-.32-.29-.54v-5.62c0-.22.1-.4.29-.54l.29-.22c.19-.14.38-.22.58-.22h3.86c.19 0 .38.07.58.22l.29.22c.19.14.29.32.29.54l-.01.44zM20.15 52.11v.76h-5.18v-7.56h1.01v6.8h4.17zM22.43 45.31h4.39c.19 0 .38.07.58.22l.29.22c.19.14.29.32.29.54v5.62c0 .22-.1.4-.29.54l-.29.22c-.19.14-.38.22-.58.22h-4.39c-.19 0-.38-.07-.58-.22l-.29-.22c-.19-.14-.29-.32-.29-.54v-5.62c0-.22.1-.4.29-.54l.29-.22c.2-.15.39-.22.58-.22zm4.54 6.36V46.5c0-.11-.01-.18-.02-.21s-.05-.07-.13-.12a.565.565 0 0 0-.17-.09c-.04-.01-.13-.02-.28-.02h-3.5c-.14 0-.24 0-.28.02s-.1.04-.17.09c-.07.05-.11.09-.13.12-.01.03-.02.1-.02.21v5.16c0 .11.01.18.02.21s.05.07.13.12c.07.05.13.08.17.09s.13.02.28.02h3.5c.14 0 .24-.01.28-.02.04-.01.1-.04.17-.09.07-.05.11-.09.13-.12s.02-.1.02-.2zM34.22 49.41h-2.87c-.19 0-.38-.07-.58-.22l-.32-.25c-.17-.12-.25-.27-.25-.43v-2.24c0-.22.1-.4.29-.54l.29-.22c.19-.14.38-.22.58-.22h3.19c.19 0 .38.07.58.22l.29.22c.19.14.29.32.29.54v.43H34.7v-.2c0-.11-.01-.18-.02-.21s-.05-.07-.13-.12c-.07-.05-.13-.08-.17-.09s-.13-.02-.28-.02h-2.3c-.14 0-.24 0-.28.02-.04.02-.1.04-.17.09-.07.05-.11.09-.13.12-.01.03-.02.1-.02.21v1.71c0 .11.01.18.02.21s.05.07.13.12c.07.05.13.08.17.09.04.01.13.02.28.02h2.87c.19 0 .38.07.58.22l.29.22c.19.14.29.32.29.54v2.27c0 .22-.1.4-.29.54l-.29.22c-.19.14-.38.22-.58.22h-3.43c-.19 0-.38-.07-.58-.22l-.29-.22c-.19-.14-.29-.32-.29-.54v-.43h1.01v.21c0 .11.01.18.02.21s.05.07.13.12c.07.05.13.08.17.09s.13.02.28.02h2.54c.14 0 .24-.01.28-.02.04-.01.1-.04.17-.09.07-.05.11-.09.13-.12.01-.03.02-.1.02-.21v-1.81c0-.11-.01-.18-.02-.21s-.05-.07-.13-.12a.565.565 0 0 0-.17-.09c-.06-.03-.15-.04-.29-.04zM43.29 52.11v.76h-5.38v-7.56h5.38v.76h-4.37v2.59h3.7v.76h-3.7v2.7h4.37v-.01z"/></svg>