<svg xmlns="http://www.w3.org/2000/svg" height="60" width="50"><path d="M3.563 3.262v8.5h42.875v-8.5H3.563zM4.313 17.762v8.5h41.25v-8.5H4.313zM3.563 32.262v8.5h42.875v-8.5H3.563zM37.405 49.764v6.28l.883.694h5.533l.93-.693v-6.281h-1.376v6.097l-.394.184h-3.836l-.395-.184v-6.097h-1.345zm-10.404 0v6.974h1.344v-5.496l4.627 5.496h1.279v-6.974h-1.28v5.408l-4.626-5.408H27zm-8.875 0v6.974h6.25v-.72l-4.973-.069v-2.312h4.098v-.875h-4.098v-2.188l4.973-.066v-.744h-6.25zm-12.875 0v6.974H6.5v-5.496l3.086 5.496h1.136c.994-1.897 1.945-3.659 3.028-5.496v5.496H15v-6.974h-1.938L10.2 55.172l-2.965-5.408H5.251z"/></svg>