<svg version="1" xmlns="http://www.w3.org/2000/svg" width="50" height="60" viewBox="0 0 50 60"><path fill-rule="evenodd" clip-rule="evenodd" d="M47.39 40.04H30.25V16.49h17.14v23.55zm-4.62-7.83c-.03.02-.06.04-.09.05-.31-.37-.61-.74-.92-1.1-.64-.76-1.28-1.51-1.92-2.26-1.05-1.24-2.11-2.47-3.16-3.7l-1.88-2.21c-.19-.22-.4-.43-.63-.68V33.9h.68v-9.71c2.88 3.38 5.71 6.7 8.58 10.07V22.54h-.67c.01 3.24.01 6.46.01 9.67z"/><path fill-rule="evenodd" clip-rule="evenodd" fill="#010101" d="M2.6 45.71v-34.9h25.55v34.9H2.6zm24.97-.62V11.45H3.15v33.64h24.42z"/><path fill-rule="evenodd" clip-rule="evenodd" d="M28.88 2.74h.47v53.93c-.15.01-.29.03-.47.05V2.74zM7.06 36.57c-.34-.07-.63-.13-.97-.21 1.14-5.64 2.29-11.26 3.44-16.95 2.02 4.91 4 9.75 6.02 14.68 2-4.92 3.98-9.77 5.99-14.71C22.7 25.1 23.85 30.72 25 36.37c-.31.07-.6.14-.95.22-.94-4.55-1.88-9.09-2.83-13.71-1.89 4.66-3.76 9.25-5.66 13.92-1.91-4.65-3.78-9.22-5.65-13.79-.02 0-.05-.01-.07-.01-.92 4.51-1.84 9.02-2.78 13.57z"/></svg>